<svg width="64" height="24" viewBox="-1 0 76 24" fill="none" xmlns="http://www.w3.org/2000/svg">
<path d="M11.3327 12.7867V15.4533L15.9993 18L20.666 15.4533V12.7867L15.9993 15.3333L11.3327 12.7867ZM15.9993 6L8.66602 10L15.9993 14L21.9993 10.7267V15.3333H23.3327V10L15.9993 6Z" fill="#00619D"/>
<path d="M33.688 7.612H28.828V16H33.688V14.632H30.508V12.412H33.328V11.08H30.508V8.98H33.688V7.612ZM38.1427 7.624H35.2147V16H38.1427C40.8187 16 42.5587 14.356 42.5587 11.824C42.5587 9.28 40.8187 7.624 38.1427 7.624ZM36.8947 14.572V9.04H38.0827C39.8467 9.04 40.8427 10.084 40.8427 11.824C40.8427 13.564 39.8467 14.572 38.0827 14.572H36.8947ZM43.7923 12.796C43.7923 15.004 45.3043 16.084 47.1403 16.084C48.9763 16.084 50.5603 15.004 50.5603 12.796V7.624H48.8683V12.808C48.8683 13.96 48.2443 14.56 47.1643 14.56C46.0963 14.56 45.4723 13.96 45.4723 12.808V7.624H43.7923V12.796Z" fill="#00619D"/>
<path d="M12 1H52V-1H12V1ZM52 23H12V25H52V23ZM12 23C5.92487 23 1 18.0751 1 12H-1C-1 19.1797 4.8203 25 12 25V23ZM63 12C63 18.0751 58.0751 23 52 23V25C59.1797 25 65 19.1797 65 12H63ZM52 1C58.0751 1 63 5.92487 63 12H65C65 4.8203 59.1797 -1 52 -1V1ZM12 -1C4.8203 -1 -1 4.8203 -1 12H1C1 5.92487 5.92487 1 12 1V-1Z" fill="#00619D"/>
</svg>
