<svg width="18" height="18" viewBox="0 0 18 18" fill="none" xmlns="http://www.w3.org/2000/svg">
<rect width="18" height="18" fill="#E5E5E5"/>
<rect width="378" height="669" transform="translate(-48 -359)" fill="white"/>
<path d="M17 2H15C15 2 12.8171 1.96636 13 2H12V6C12 6.55 12.45 7 13 7H14V14C14 15.1 13.1 16 12 16C10.9 16 10 15.1 10 14V4C10 1.79 8.21 0 6 0C3.79 0 2 1.79 2 4V11H1C0.45 11 0 11.45 0 12V16H1H2H3H4H5H6V12C6 11.45 5.55 11 5 11H4V4C4 2.9 4.9 2 6 2C7.1 2 8 2.9 8 4V14C8 16.21 9.79 18 12 18C14.21 18 16 16.21 16 14V7H17C17.55 7 18 6.55 18 6V2H17Z" fill="#444444"/>
<path d="M17 1L13 1L13 -3.49691e-07C13 -0.552285 13.4477 -1 14 -1L16 -1C16.5523 -1 17 -0.552285 17 0L17 1Z" fill="#444444"/>
<path d="M1 17H5V18C5 18.5523 4.55228 19 4 19H2C1.44772 19 1 18.5523 1 18V17Z" fill="#444444"/>
</svg>
