<svg width="60" height="40" viewBox="0 0 44 19" fill="none" xmlns="http://www.w3.org/2000/svg">
<g clip-path="url(#clip0_822_9250)">
<path d="M3.33341 9.87205V12.5619L8.00008 15.1307L12.6667 12.5619V9.87205L8.00008 12.4409L3.33341 9.87205ZM8.00008 3.02637L0.666748 7.06115L8.00008 11.0959L14.0001 7.79414V12.4409H15.3334V7.06115L8.00008 3.02637Z" fill="white"/>
</g>
<path d="M22.508 5.98V8.08H25.328V9.412H22.508V11.632H25.688V13H20.828V4.612H25.688V5.98H22.508ZM30.1427 4.624C31.0227 4.624 31.7947 4.796 32.4587 5.14C33.1307 5.484 33.6467 5.976 34.0067 6.616C34.3747 7.248 34.5587 7.984 34.5587 8.824C34.5587 9.664 34.3747 10.4 34.0067 11.032C33.6467 11.656 33.1307 12.14 32.4587 12.484C31.7947 12.828 31.0227 13 30.1427 13H27.2147V4.624H30.1427ZM30.0827 11.572C30.9627 11.572 31.6427 11.332 32.1227 10.852C32.6027 10.372 32.8427 9.696 32.8427 8.824C32.8427 7.952 32.6027 7.272 32.1227 6.784C31.6427 6.288 30.9627 6.04 30.0827 6.04H28.8947V11.572H30.0827ZM37.4723 4.624V9.808C37.4723 10.376 37.6203 10.812 37.9163 11.116C38.2123 11.412 38.6283 11.56 39.1643 11.56C39.7083 11.56 40.1283 11.412 40.4243 11.116C40.7203 10.812 40.8683 10.376 40.8683 9.808V4.624H42.5603V9.796C42.5603 10.508 42.4043 11.112 42.0923 11.608C41.7883 12.096 41.3763 12.464 40.8563 12.712C40.3443 12.96 39.7723 13.084 39.1403 13.084C38.5163 13.084 37.9483 12.96 37.4363 12.712C36.9323 12.464 36.5323 12.096 36.2363 11.608C35.9403 11.112 35.7923 10.508 35.7923 9.796V4.624H37.4723Z" fill="#ffffff"/>
<defs>
<clipPath id="clip0_822_9250">
<rect width="16" height="16.1391" fill="#ffffff" transform="translate(0 1.00879)"/>
</clipPath>
</defs>
</svg>
