<svg width="23" height="23" viewBox="0 0 23 23" fill="none" xmlns="http://www.w3.org/2000/svg">
<path fill-rule="evenodd" clip-rule="evenodd" d="M15.0001 3.00013H14.5001L14.3155 3.40891C14.268 3.38595 14.2175 3.36093 14.1646 3.33466C13.5412 3.02559 12.6204 2.48581 11.9833 3.24857C11.5415 3.77744 11.0001 4.50007 11.0001 4.50007C10.7352 4.38702 9.46563 3.8456 9.08408 3.27951C9.08245 3.28398 9.06751 3.25748 9.03931 3.2075C9.08408 2.5004 8.97296 1.43806 8 0.999136C6.5 0 4.78253 0.18167 3.5 1.00022C3.00414 1.35391 2 2.0006 2 4.0006C2 5.5006 4 7.0006 7.23144 5.72275C7.23144 5.72275 9.1544 5.72904 9.66938 5.87991C7.15943 8.6632 3.96317 12.0807 3.96317 12.0807C3.72798 12.1754 3.384 12.2503 3.12201 12.2731C2.42733 12.0807 1.7316 12.1004 1.00029 13.0001C0.719776 13.3632 0.722857 14.2692 0.999947 15.0001C1.15138 15.3996 1.5 16.0001 2 16.0001C3 16.0001 2.79518 15.2953 2.5 15.0001C2 14.5001 1.83155 13.776 3.00009 13.5001C4.16863 13.2243 3.89847 13.6304 4.5 14.5001C5.5374 16.0001 7.57391 15.8482 8.5 15.0001C9.42609 14.152 9.66938 13.0001 9.3568 11.89C9.31401 11.2736 9.64177 10.3619 10.3299 10.0409C10.9609 9.74656 11.8154 9.21565 12.2473 8.66953C12.4583 8.40265 12.7264 8.21034 13.0491 8.20953C14.0264 8.20707 14.7271 9.65895 15.2092 10.6579C15.2819 10.8085 15.3496 10.9487 15.4125 11.0722L17.8448 9.93757C17.8448 9.93757 16.5002 6.00012 16.1022 5.04754C16.0817 5.01933 15.9196 4.59919 15.7409 4.13605C15.6417 3.87915 15.5373 3.60847 15.4493 3.38474C15.3616 3.16165 15.2134 3.03475 15.0001 3.00013ZM7.67145 3.90168C7.93565 2.97967 7.67145 2.38541 7 2.0006C6 1.5006 5.5 1.5 4.5 2.0006C3.5 2.5012 3.65704 3.47525 4 4.0006C4.34296 4.52594 5.5 4.5 5.5 4.5C5.5 4.5 7.5 4.5 7.67145 3.90168ZM8.00009 12.0001C7.77504 11.5176 7.00009 11.2478 6.50009 11.5001C5.50898 12.0001 5.50009 12.5001 5.50009 13.0001C5.50009 13.3424 6.40108 14.6351 7.5 14.0001C8.59892 13.3651 8.22514 12.4825 8.00009 12.0001Z" fill="#444444"/>
<path d="M18.3772 9.6896C18.5668 9.60118 18.7907 9.63311 18.9479 9.771C19.0719 9.87968 19.1379 10.0401 19.1264 10.2045V13.5001L23 22.0001L21.5 23.0001L17.3526 14.2035L14.6927 12.2731C14.5593 12.1762 14.4788 12.0226 14.4752 11.8578C14.4706 11.6487 14.59 11.4566 14.7795 11.3682L18.3772 9.6896Z" fill="#444444"/>
</svg>
