<svg width="23" height="23" viewBox="0 0 23 23" fill="none" xmlns="http://www.w3.org/2000/svg">
<path fill-rule="evenodd" clip-rule="evenodd" d="M15 3.00006H14.5L14.3155 3.40884C14.2679 3.38589 14.2175 3.36087 14.1645 3.3346C13.5412 3.02553 12.6204 2.48575 11.9832 3.24851C11.5414 3.77738 11 4.50001 11 4.50001C10.7352 4.38696 9.46557 3.84554 9.08402 3.27945C9.08239 3.28392 9.06745 3.25742 9.03925 3.20744C9.08402 2.50034 8.9729 1.438 7.99994 0.999075C6.49994 -6.10352e-05 4.78247 0.181609 3.49994 1.00016C3.00407 1.35385 1.99994 2.00054 1.99994 4.00054C1.99994 5.50054 3.99994 7.00054 7.23138 5.72269C7.23138 5.72269 9.15434 5.72897 9.66932 5.87985C7.15937 8.66314 3.96311 12.0807 3.96311 12.0807C3.72792 12.1753 3.38394 12.2502 3.12194 12.273C2.42727 12.0807 1.73154 12.1003 1.00023 13.0001C0.719715 13.3631 0.722796 14.2691 0.999886 15.0001C1.15132 15.3996 1.49994 16.0001 1.99994 16.0001C2.99994 16.0001 2.79511 15.2952 2.49994 15.0001C1.99994 14.5001 1.83148 13.7759 3.00003 13.5001C4.16857 13.2242 3.89841 13.6303 4.49994 14.5001C5.53734 16.0001 7.57385 15.8482 8.49994 15.0001C9.42603 14.152 9.66932 13 9.35674 11.8899C9.31395 11.2735 9.64171 10.3619 10.3299 10.0408C10.9609 9.7465 11.8153 9.21559 12.2472 8.66947C12.4583 8.40259 12.7263 8.21028 13.049 8.20947C14.0263 8.20701 14.727 9.65889 15.2092 10.6578C15.2818 10.8084 15.3495 10.9487 15.4124 11.0721L17.8448 9.93751C17.8448 9.93751 16.5002 6.00006 16.1021 5.04748C16.0816 5.01927 15.9195 4.59913 15.7408 4.13599C15.6417 3.87909 15.5372 3.6084 15.4492 3.38468C15.3615 3.16159 15.2134 3.03469 15 3.00006ZM7.67139 3.90162C7.93559 2.97961 7.67139 2.38535 6.99994 2.00054C5.99994 1.50054 5.49994 1.49994 4.49994 2.00054C3.49994 2.50113 3.65698 3.47519 3.99994 4.00054C4.3429 4.52588 5.49994 4.49994 5.49994 4.49994C5.49994 4.49994 7.49994 4.49994 7.67139 3.90162ZM8.00003 12C7.77498 11.5176 7.00003 11.2478 6.50003 11.5C5.50892 12 5.50003 12.5 5.50003 13C5.50003 13.3424 6.40102 14.6351 7.49994 14.0001C8.59886 13.3651 8.22508 12.4825 8.00003 12Z" fill="#FFFFFF"/>
<path d="M18.3772 9.68954C18.5667 9.60112 18.7906 9.63305 18.9479 9.77094C19.0718 9.87962 19.1378 10.04 19.1263 10.2045V13.5001L22.9999 22.0001L21.4999 23.0001L17.3525 14.2034L14.6926 12.273C14.5592 12.1762 14.4787 12.0225 14.4751 11.8577C14.4705 11.6486 14.5899 11.4565 14.7795 11.3681L18.3772 9.68954Z" fill="#FFFFFF"/>
</svg>
