<svg width="88" height="26" viewBox="0 0 88 26" fill="none" xmlns="http://www.w3.org/2000/svg">
<rect x="0.5" y="0.5" width="87" height="25" rx="12.5" fill="#2CC25F"/>
<g clip-path="url(#clip0_543_3480)">
<path d="M15.0009 15.7991L12.2009 12.9991L11.2676 13.9324L15.0009 17.6658L23.0009 9.66576L22.0676 8.73242L15.0009 15.7991Z" fill="white"/>
</g>
<path d="M35.936 11.216C35.936 11.664 35.828 12.084 35.612 12.476C35.404 12.868 35.072 13.184 34.616 13.424C34.168 13.664 33.6 13.784 32.912 13.784H31.508V17H29.828V8.624H32.912C33.56 8.624 34.112 8.736 34.568 8.96C35.024 9.184 35.364 9.492 35.588 9.884C35.82 10.276 35.936 10.72 35.936 11.216ZM32.84 12.428C33.304 12.428 33.648 12.324 33.872 12.116C34.096 11.9 34.208 11.6 34.208 11.216C34.208 10.4 33.752 9.992 32.84 9.992H31.508V12.428H32.84ZM42.2648 15.404H38.9288L38.3768 17H36.6128L39.6248 8.612H41.5808L44.5928 17H42.8168L42.2648 15.404ZM41.8088 14.06L40.5968 10.556L39.3848 14.06H41.8088ZM48.6106 17.084C48.0266 17.084 47.4986 16.984 47.0266 16.784C46.5626 16.584 46.1946 16.296 45.9226 15.92C45.6506 15.544 45.5106 15.1 45.5026 14.588H47.3026C47.3266 14.932 47.4466 15.204 47.6626 15.404C47.8866 15.604 48.1906 15.704 48.5746 15.704C48.9666 15.704 49.2746 15.612 49.4986 15.428C49.7226 15.236 49.8346 14.988 49.8346 14.684C49.8346 14.436 49.7586 14.232 49.6066 14.072C49.4546 13.912 49.2626 13.788 49.0306 13.7C48.8066 13.604 48.4946 13.5 48.0946 13.388C47.5506 13.228 47.1066 13.072 46.7626 12.92C46.4266 12.76 46.1346 12.524 45.8866 12.212C45.6466 11.892 45.5266 11.468 45.5266 10.94C45.5266 10.444 45.6506 10.012 45.8986 9.644C46.1466 9.276 46.4946 8.996 46.9426 8.804C47.3906 8.604 47.9026 8.504 48.4786 8.504C49.3426 8.504 50.0426 8.716 50.5786 9.14C51.1226 9.556 51.4226 10.14 51.4786 10.892H49.6306C49.6146 10.604 49.4906 10.368 49.2586 10.184C49.0346 9.992 48.7346 9.896 48.3586 9.896C48.0306 9.896 47.7666 9.98 47.5666 10.148C47.3746 10.316 47.2786 10.56 47.2786 10.88C47.2786 11.104 47.3506 11.292 47.4946 11.444C47.6466 11.588 47.8306 11.708 48.0466 11.804C48.2706 11.892 48.5826 11.996 48.9826 12.116C49.5266 12.276 49.9706 12.436 50.3146 12.596C50.6586 12.756 50.9546 12.996 51.2026 13.316C51.4506 13.636 51.5746 14.056 51.5746 14.576C51.5746 15.024 51.4586 15.44 51.2266 15.824C50.9946 16.208 50.6546 16.516 50.2066 16.748C49.7586 16.972 49.2266 17.084 48.6106 17.084ZM55.9231 17.084C55.3391 17.084 54.8111 16.984 54.3391 16.784C53.8751 16.584 53.5071 16.296 53.2351 15.92C52.9631 15.544 52.8231 15.1 52.8151 14.588H54.6151C54.6391 14.932 54.7591 15.204 54.9751 15.404C55.1991 15.604 55.5031 15.704 55.8871 15.704C56.2791 15.704 56.5871 15.612 56.8111 15.428C57.0351 15.236 57.1471 14.988 57.1471 14.684C57.1471 14.436 57.0711 14.232 56.9191 14.072C56.7671 13.912 56.5751 13.788 56.3431 13.7C56.1191 13.604 55.8071 13.5 55.4071 13.388C54.8631 13.228 54.4191 13.072 54.0751 12.92C53.7391 12.76 53.4471 12.524 53.1991 12.212C52.9591 11.892 52.8391 11.468 52.8391 10.94C52.8391 10.444 52.9631 10.012 53.2111 9.644C53.4591 9.276 53.8071 8.996 54.2551 8.804C54.7031 8.604 55.2151 8.504 55.7911 8.504C56.6551 8.504 57.3551 8.716 57.8911 9.14C58.4351 9.556 58.7351 10.14 58.7911 10.892H56.9431C56.9271 10.604 56.8031 10.368 56.5711 10.184C56.3471 9.992 56.0471 9.896 55.6711 9.896C55.3431 9.896 55.0791 9.98 54.8791 10.148C54.6871 10.316 54.5911 10.56 54.5911 10.88C54.5911 11.104 54.6631 11.292 54.8071 11.444C54.9591 11.588 55.1431 11.708 55.3591 11.804C55.5831 11.892 55.8951 11.996 56.2951 12.116C56.8391 12.276 57.2831 12.436 57.6271 12.596C57.9711 12.756 58.2671 12.996 58.5151 13.316C58.7631 13.636 58.8871 14.056 58.8871 14.576C58.8871 15.024 58.7711 15.44 58.5391 15.824C58.3071 16.208 57.9671 16.516 57.5191 16.748C57.0711 16.972 56.5391 17.084 55.9231 17.084ZM62.0236 9.98V12.08H64.8436V13.412H62.0236V15.632H65.2036V17H60.3436V8.612H65.2036V9.98H62.0236ZM69.6583 8.624C70.5383 8.624 71.3103 8.796 71.9743 9.14C72.6463 9.484 73.1623 9.976 73.5223 10.616C73.8903 11.248 74.0743 11.984 74.0743 12.824C74.0743 13.664 73.8903 14.4 73.5223 15.032C73.1623 15.656 72.6463 16.14 71.9743 16.484C71.3103 16.828 70.5383 17 69.6583 17H66.7303V8.624H69.6583ZM69.5983 15.572C70.4783 15.572 71.1583 15.332 71.6383 14.852C72.1183 14.372 72.3583 13.696 72.3583 12.824C72.3583 11.952 72.1183 11.272 71.6383 10.784C71.1583 10.288 70.4783 10.04 69.5983 10.04H68.4103V15.572H69.5983Z" fill="white"/>
<defs>
<clipPath id="clip0_543_3480">
<rect width="16" height="16" fill="white" transform="translate(9 5)"/>
</clipPath>
</defs>
</svg>
