<svg width="18" height="14" viewBox="0 0 12 14" fill="none" xmlns="http://www.w3.org/2000/svg">
<path d="M5.4165 13.761V11.661C2.494 11.5093 0.166504 9.08266 0.166504 6.12516C0.166504 3.0685 2.6515 0.583496 5.70817 0.583496C8.76484 0.583496 11.2498 3.0685 11.2498 6.12516C11.2498 9.01266 9.24317 11.9177 6.25067 13.3585L5.4165 13.761ZM5.70817 1.75016C3.29317 1.75016 1.33317 3.71016 1.33317 6.12516C1.33317 8.54016 3.29317 10.5002 5.70817 10.5002H6.58317V11.8418C8.7065 10.5002 10.0832 8.29516 10.0832 6.12516C10.0832 3.71016 8.12317 1.75016 5.70817 1.75016ZM5.12484 8.4585H6.2915V9.62516H5.12484V8.4585ZM6.2915 7.5835H5.12484C5.12484 5.68766 6.87484 5.8335 6.87484 4.66683C6.87484 4.02516 6.34984 3.50016 5.70817 3.50016C5.0665 3.50016 4.5415 4.02516 4.5415 4.66683H3.37484C3.37484 3.37766 4.419 2.3335 5.70817 2.3335C6.99734 2.3335 8.0415 3.37766 8.0415 4.66683C8.0415 6.12516 6.2915 6.271 6.2915 7.5835Z" fill="white"/>
</svg>
