<svg width="78" height="24" viewBox="0 0 78 24" fill="none" xmlns="http://www.w3.org/2000/svg">
<g clip-path="url(#clip0_572_9016)">
<path d="M14.0009 14.7991L11.2009 11.9991L10.2676 12.9324L14.0009 16.6658L22.0009 8.66576L21.0676 7.73242L14.0009 14.7991Z" fill="#949494"/>
</g>
<path d="M28.384 8.98H30.616V16H32.296V8.98H34.528V7.624H28.384V8.98ZM43.9258 11.788C43.9258 9.28 42.0298 7.504 39.6418 7.504C37.2778 7.504 35.3458 9.28 35.3458 11.788C35.3458 14.308 37.2778 16.084 39.6418 16.084C42.0178 16.084 43.9258 14.308 43.9258 11.788ZM37.0738 11.788C37.0738 10.084 38.1178 9.016 39.6418 9.016C41.1538 9.016 42.1978 10.084 42.1978 11.788C42.1978 13.492 41.1538 14.584 39.6418 14.584C38.1178 14.584 37.0738 13.492 37.0738 11.788ZM50.963 7.624H48.035V16H50.963C53.639 16 55.379 14.356 55.379 11.824C55.379 9.28 53.639 7.624 50.963 7.624ZM49.715 14.572V9.04H50.903C52.667 9.04 53.663 10.084 53.663 11.824C53.663 13.564 52.667 14.572 50.903 14.572H49.715ZM64.8086 11.788C64.8086 9.28 62.9126 7.504 60.5246 7.504C58.1606 7.504 56.2286 9.28 56.2286 11.788C56.2286 14.308 58.1606 16.084 60.5246 16.084C62.9006 16.084 64.8086 14.308 64.8086 11.788ZM57.9566 11.788C57.9566 10.084 59.0006 9.016 60.5246 9.016C62.0366 9.016 63.0806 10.084 63.0806 11.788C63.0806 13.492 62.0366 14.584 60.5246 14.584C59.0006 14.584 57.9566 13.492 57.9566 11.788Z" fill="#949494"/>
<rect x="0.5" y="0.5" width="77" height="23" rx="11.5" stroke="#949494"/>
<defs>
<clipPath id="clip0_572_9016">
<rect width="16" height="16" fill="white" transform="translate(8 4)"/>
</clipPath>
</defs>
</svg>
