<svg
      xmlns="http://www.w3.org/2000/svg"
      height="50px"
      width="200px"
      viewBox="60 53 80 80"
    >
      <defs>
        <clipPath id="clipPath120" clipPathUnits="userSpaceOnUse">
          <path d="M0 4.222h4205.14V5945.04H0z"></path>
        </clipPath>
        <clipPath id="clipPath124" clipPathUnits="userSpaceOnUse">
          <path d="M0 5v5941h4200V5z"></path>
        </clipPath>
        <clipPath id="clipPath140" clipPathUnits="userSpaceOnUse">
          <path d="M0 4.222h4205.14V5945.04H0z"></path>
        </clipPath>
        <clipPath id="clipPath144" clipPathUnits="userSpaceOnUse">
          <path d="M0 5v5941h4200V5z"></path>
        </clipPath>
        <clipPath id="clipPath96" clipPathUnits="userSpaceOnUse">
          <path d="M0 4.222h4205.14V5945.04H0z"></path>
        </clipPath>
        <clipPath id="clipPath100" clipPathUnits="userSpaceOnUse">
          <path d="M0 5v5941h4200V5z"></path>
        </clipPath>
      </defs>
      <g fillOpacity="1">
        <g
          fill="#00619d"
          transform="matrix(.06006 0 0 -.06086 -28.062 401.976)"
        >
          <g
            fill="#00619d"
            fillOpacity="1"
            clipPath="url(#clipPath96)"
            opacity="0.953"
          >
            <g fill="#00619d" fillOpacity="1">
              <g
                fill="#00619d"
                fillOpacity="1"
                fillRule="nonzero"
                stroke="none"
                clipPath="url(#clipPath100)"
              >
                <path d="M3220.82 5101.4c-64.07-28.06-128.12-56.11-192.18-84.17-5.29-2.23-10.3 1.9-15.38 2.89-74.21 24.53-148.49 48.86-222.63 73.62-3.48 1.29-7 2.37-10.53 3.53v-137.01c58.48-48.54 138.42-72.79 220.35-72.79 83.21 0 161.5 23.26 220.37 73.17z"></path>
                <path d="M3298.71 5135.66l-37.78-16.9v-183.88c13.39 7.93 26.12 16.92 38.06 27z"></path>
                <path d="M2836.84 5100.9l135.39-44.68 52.5-17.31 320.62 140.45-.33-.1-158.39 52.25zm342.34 133.29l-146.59 48.39-188.96-159.71zm-526.52-72.3l140.04-46.19 233.13 169.09z"></path>
              </g>
            </g>
          </g>
        </g>
        <g
          fill="#00619d"
          transform="matrix(.06006 0 0 -.06086 -28.062 401.976)"
        >
          <g
            fill="#00619d"
            fillOpacity="1"
            clipPath="url(#clipPath120)"
            opacity="0.953"
          >
            <g fill="#00619d" fillOpacity="1">
              <g fill="#00619d" fillOpacity="1" clipPath="url(#clipPath124)">
                <path
                  fill="#00619d"
                  fillOpacity="1"
                  fillRule="nonzero"
                  stroke="none"
                  d="M977.418 5259.93v-350.27h194.092v55.2h-127.94v299.81h-66.152zm1340.292-62.4c-29.05.55-58.76-11.13-77.17-34.09v29.65h-66.17v-283.74h66.17c.22 52.95-.44 106.2.33 159.11 1.24 18.86 5.21 41.09 22.95 51.46 17.48 11.08 38.98 9.46 58.77 9.47v68.28c-1.63 0-3.25-.14-4.88-.14zm-998.04-.11c-45.03-.8-88.33-26.98-110.19-66.31-20.5-36.24-23.56-80.48-14.5-120.58 10.67-47.6 47.74-89.77 95.81-101.45 38.47-9.62 81.69-2.07 112.69 23.32 3.9 2.97 7.5 6.3 10.92 9.8v-32.63h66.67v283.44h-66.67v-31.86c-23.2 23.07-55.59 36.69-88.41 36.3-2.1.13-4.19 0-6.32 0zm352.07-.13c-30.95-1.27-60.97-14.81-82.85-36.66v32.38h-66.18v-345.34h66.18c.14 35.28-.17 59.17.14 94.04 21.88-21.69 51.61-35.39 82.54-36.41 37.73-2.61 76.34 12.02 102.12 39.85 30.56 32 42.39 78.09 38.94 121.44-2.51 44.27-25.11 88.61-64 111.45-22.77 14.45-50.02 20.76-76.84 19.25zm295.92.13c-44.71-.8-87.76-26.62-109.75-65.51-20.89-36.38-24.06-81.01-14.94-121.38 10.67-47.62 47.77-89.77 95.83-101.45 38.48-9.62 81.66-2.04 112.7 23.32 3.89 2.97 7.46 6.33 10.89 9.83v-32.66h66.66v283.44h-66.66v-31.86c-23.21 23.07-55.59 36.69-88.39 36.3-2.12.13-4.22 0-6.34 0zm499.98 0c-44.29-.66-88.94-21.72-113.91-59.01-26.76-38.39-31.34-89-19.48-133.45 11.74-43.85 46.85-80.75 90.65-93.35 50.71-15.07 110.07-4.21 148.69 33.05 28.77 27.14 43.87 66.83 43.46 106.11.77 40.7-14.56 82.27-44.92 110.02-28.04 25.91-66.7 37.98-104.49 36.63zm-1126.55-58.81c27.54-1.28 52.75-19.3 64.13-44.22 11.8-24.91 12.05-54.87 2.46-80.55-9.6-25.39-32.75-45.54-59.95-49.14-28.58-4.72-59.06 8.59-74.53 33.18-16.78 24.8-18.82 57.41-11.04 85.71 8.79 30.23 37.34 53.42 68.86 55.02 3.37.18 6.71.18 10.07 0zm331.03 0c27.34-1.6 53.17-18.69 64.66-43.69 11.83-24.53 11.85-54.02 2.7-79.4-9.28-24.61-30.37-45.18-56.69-50.14-31.26-6.83-65.65 8.3-81.47 36.16-14.09 24.23-15.41 54.44-8.19 81.09 8.6 30.26 36.71 54.1 68.38 55.89 3.53.3 7.08.25 10.61.14zm316.98 0c27.2-1.3 52.26-18.86 63.69-43.41 12.19-24.87 12.46-54.88 3.17-80.7-9.28-24.78-31.16-44.9-57.6-49.36-28.97-5.79-60.6 7.05-76.7 31.99-17.2 24.89-19.38 57.88-11.52 86.46 8.87 30.57 37.97 53.91 69.92 55.04 3.01.19 6.01.14 9.04 0zm482.51.18c27.34.42 54.54-14.76 67-39.4 12.27-23.16 13.15-51.08 7.42-76.21-6.73-28.55-30.6-52.28-59.62-57.72-26.87-5.78-57.41 3.12-74.11 25.67-17.34 23.45-19.24 54.71-15.16 82.63 4.22 27.56 23.12 53.85 50.74 61.49 7.66 2.39 15.71 3.52 23.73 3.54z"
                ></path>
              </g>
            </g>
          </g>
        </g>
        <g
          fill="#00619d"
          transform="matrix(.06006 0 0 -.06086 -58.204 332.049)"
        >
          <g
            fill="#00619d"
            fillOpacity="1"
            clipPath="url(#clipPath140)"
            opacity="0.953"
          >
            <g fill="#00619d" fillOpacity="1">
              <g fill="#00619d" fillOpacity="1" clipPath="url(#clipPath144)">
                <path
                  fill="#00619d"
                  fillOpacity="1"
                  fillRule="nonzero"
                  stroke="none"
                  d="M3693.785 3375.89l19.54-54.43 21 59.51zm25.08 20.48c-10.2-28.41-20.4-56.83-30.6-85.22h-.08c-4.79-13.94-9.62-27.89-14.44-41.81h68.8c15.21 42.33 30.42 84.69 45.61 127.03zm-123.69 254.11l101.55-282.88h80.87c33.85 94.31 67.72 188.6 101.56 282.88h-69.29c-10.19-28.41-20.39-56.83-30.61-85.22h-.06c-13.92-40.29-27.86-80.58-41.78-120.85-.45 1.21-.86 2.43-1.27 3.64-17.31 50-34.59 99.98-51.87 149.98l-18.76 52.45zM1465.87 3367.6h71.743c7.792 22.52 15.57 45 23.339 67.52h143.013c7.77-22.52 15.55-45 23.34-67.52h72.27c-42.14 117.38-84.31 234.74-126.45 352.09h-80.833c-42.144-117.35-84.285-234.71-126.422-352.09zm167.845 271.66c17.31-49.99 34.59-99.99 51.87-149.98h-106.246c17.695 51.21 35.406 102.41 53.106 153.63.44-1.22.86-2.43 1.27-3.65zm602.95 15.88c-20.97-.25-41.97-5.51-60.28-15.96-18.05-10.2-33.01-25.38-43.85-42.94-13.64-21.72-20.44-47.43-21.99-72.82-1.43-24.88 1.02-50.05 9.45-73.63 3.67-10.37 8.71-20.51 14.89-29.77 16.45-25.3 42.06-44.7 71.49-52.26 12.32-3.22 25.19-4.43 38.01-3.88 18.83.66 38 5.35 54.24 15.29 13.56 7.97 25.57 18.69 34.39 31.78 1.1 2.1 1.27 1.19 1.1-.72v-41.86h70.04v282.17h-70.04v-42.94c-5.94 8.27-12.9 15.9-20.92 22.24-7.79 6.2-16.47 11.46-25.35 15.6-15.85 7.27-33.81 9.98-51.18 9.7zm20.75-60.74c13.89.08 27.67-3.98 39.47-11.25 14.83-8.6 25.69-23.04 31.61-38.97 5.62-15.43 6.56-32.22 4.88-48.43-1.66-15.24-6.92-30.29-16.45-42.41-8.77-11.46-20.98-20.34-34.73-24.83-18.39-6.17-39.25-5.3-56.69 3.41-15.3 7.31-27.54 20.29-35.17 35.31-8.46 17.59-10.47 37.7-8.35 56.92 1.57 13.99 6.39 27.74 14.77 39.13 8.71 12.4 21.31 22.05 35.66 26.96 8 2.83 16.51 4.16 25 4.16zm419.12 119.77v-105.05c-.08-.23-.16-.23-.41.07-14.33 13.21-19.4 16.96-28.47 23.29-9.68 6.84-20.4 12.13-31.5 16.13-12.68 4.44-26.05 6.62-39.39 6.56-21.11.03-42.45-5.05-60.96-15.41-16.56-9.04-30.95-22.27-41.59-37.7-9.87-14.03-16.7-29.82-20.89-46.41-4.86-19.1-6.07-38.86-4.94-58.48 1.33-21.56 6.29-43.03 15.79-62.43 9.79-19.43 24.09-36.74 42.01-49.12 13.62-9.48 29.13-16.23 45.37-19.46 12.81-2.56 26.01-3 39.02-1.76 8.82.83 17.55 2.56 25.96 5.35 20.7 7 39.97 20.56 52.01 39.16.96 1.46 1.93 2.93 2.89 4.41v-44.95h70.53v345.8zm580.93-59.55c-14.55 0-29.38-3.34-42.69-9.29-14.89-6.59-28.12-16.95-37.89-29.98-1.22-2.1-1.3-1-1.16.82v34.37h-69.51v-282.17h69.51c.02 52.45-.03 104.9.05 157.37.25 15.08 3.03 30.76 11.66 43.44 8.52 12.51 22.41 20.89 37.2 23.64 11.77 2.24 24.06 2.19 35.75-.66 11.91-2.83 22.83-9.64 30.57-19.13 9.7-11.57 13.61-26.84 14.42-41.67.41-10.74.1-21.52.21-32.3v-130.69h69.51c.03 52.66-.05 105.36.06 158.04.24 15.18 3.22 30.92 12.15 43.48 8.65 12.19 22.3 20.35 36.9 23.05 12 2.23 24.56 1.98 36.39-1.13 11.9-3.15 22.65-10.28 30.21-19.98 9.31-11.89 12.86-27.18 13.5-41.98.27-13.45.05-26.93.16-40.37v-121.11h69.48c-.02 56.8.06 113.63-.02 170.47-.31 19.1-3.72 38.6-12.08 55.89-5.56 11.74-13.62 22.32-23.23 31.14-12.9 12.15-29.1 20.64-46.19 24.86-12.9 3.19-26.16 4.3-39.49 3.78-29.91-1.24-59.43-14.55-79.24-37.15-4.97-5.6-9.1-11.86-12.76-18.36-6.81 12.73-16.1 24.26-27.76 32.91-10.44 7.77-22.54 13.8-35.16 17.58-13.16 3.92-26.77 5.13-40.47 5.13zm-333.15-.06c-21.78-.24-43.74-4.41-63.56-13.83-11.33-5.35-21.83-12.24-31.17-20.7-7-6.34-13.34-13.64-18.64-21.36-12.45-17.94-20.2-38.91-23.45-60.39a196.415 196.415 0 01-.44-55.53c3.09-22.68 11.05-45.09 24.47-63.75 13.23-18.66 31.4-33.93 52.37-43.13 17.97-8.05 37.87-12.08 57.49-12.63 17.31-.49 34.73 1.24 51.35 6.2 14.11 4.2 27.48 10.86 39.19 19.65 17.8 13.51 32.41 31.37 41.26 51.93 1.96 4.46 3.69 9.12 5.13 13.73h-75.19c-6.01-12.22-15.74-22.85-28.25-28.5-12.87-5.87-27.54-6.95-41.42-5.08-14.25 2.02-27.76 8.77-37.85 19.05-10.55 10.53-16.64 24.81-18.87 39.41-.47 2.95-.78 5.9-1.02 8.85h208.33c2.01 12.93 2.29 26.18 1.45 39.25-1.28 18.71-5.81 37.35-14.18 54.15-5.82 11.63-13.12 22.93-22.27 32.42-14.03 14.77-32.03 25.52-51.08 32.16-17.22 5.95-35.47 8.38-53.65 8.1zm.55-56.64c14.96.08 30.17-3.85 42.52-12.56 9.15-6.37 17.09-14.83 21.47-25.22 3.56-8.1 4.93-16.98 5.05-25.77h-137.78c1.93 14.27 6.64 28.58 15.95 39.8 10.4 12.65 25.75 21.06 42.01 23.04 3.55.5 7.16.69 10.78.71zm-329.64-3.52c13.9.08 27.71-3.98 39.5-11.25 14.78-8.57 25.58-22.93 31.54-38.75 5.67-15.48 6.63-32.35 4.93-48.65-1.66-15.24-6.89-30.29-16.43-42.41-8.79-11.49-20.98-20.34-34.73-24.83-18.33-6.17-39.08-5.3-56.5 3.31-15.38 7.3-27.7 20.31-35.36 35.41-8.46 17.59-10.47 37.7-8.35 56.92 1.57 14.08 6.42 27.89 14.88 39.33 8.74 12.37 21.39 21.96 35.75 26.84 7.93 2.78 16.37 4.05 24.77 4.08zm-647.4 60.74c-21.77-.25-43.65-4.8-63.2-14.72-14.66-7.39-28-17.25-38.83-29.65-11.82-13.54-20.81-29.49-26.62-46.53-6.93-20.5-9.07-42.44-8.13-64.08 1.04-25.43 7.38-51.12 20.72-73.09 9.7-16.17 22.87-30.2 38.59-40.71 14.33-9.75 31.11-16.25 47.84-19.56 17.01-3.37 34.54-3.83 51.79-2.04 21.69 2.29 43.24 9.23 61.29 21.8 19.4 13.31 34.84 32.28 44.16 53.91 3.03 6.97 5.49 14.19 7.44 21.55h-75.16c-4.24-12.37-12.13-23.92-23.56-30.65-12.35-7.41-27.28-9.17-41.43-8.1-13.42 1.05-26.62 6.37-36.46 15.66-12.27 11.32-19.07 27.37-22.05 43.52-2.75 14.99-2.97 30.42-1.33 45.58 1.91 16.56 7.06 33.32 17.95 46.25 8.35 10.39 20.25 17.83 33.32 20.56 11.32 2.34 23.21 2.21 34.4-.74 9.76-2.55 18.52-8.11 25.66-15.11 6.17-6.15 10.69-13.87 13.5-22.11h75.19c-5.29 20.84-14.97 41.08-29.69 57.08-8.84 9.65-19.29 17.84-30.67 24.29-22.69 12.76-48.98 17.25-74.72 16.89zm380.75-4.6c-2.53-.85.78 2.53 0 .08zm71.25 0c-1.98-.52-1.27 2.31-.08.08zm-71.25-282.17c.86-2.57-2.5.77-.08 0zm71.25 0c-1.13-2.23-2.07.36-.08 0z"
                ></path>
              </g>
            </g>
          </g>
        </g>
        <!-- <text
          xmlSpace="preserve"
          x="172.564"
          y="137.812"
          fill="#0b68a1"
          strokeWidth="0.187"
          fontFamily="Poppins"
          fontSize="17.977"
          fontStretch="normal"
          fontStyle="normal"
          fontVariant="normal"
          fontWeight="300"
        >
          <tspan
            x="172.564"
            y="137.812"
            fill="#0b68a1"
            fillOpacity="1"
            strokeWidth="0.187"
            fontFamily="Poppins"
            fontSize="17.977"
            fontStretch="normal"
            fontStyle="normal"
            fontVariant="normal"
            fontWeight="300"
          >
            <tspan
              fill="#0b68a1"
              fillOpacity="1"
              strokeWidth="0.187"
              baselineShift="super"
              fontFamily="Poppins"
              fontSize="11.685"
              fontStretch="normal"
              fontStyle="normal"
              fontVariant="normal"
              fontWeight="300"
            >
              ®
            </tspan>
          </tspan>
        </text> -->
       
        <g fill="#fff" transform="matrix(.06006 0 0 -.06086 204.199 401.976)">
          <g
            fill="#fff"
            fillOpacity="1"
            clipPath="url(#clipPath96)"
            opacity="0.953"
          >
            <g fill="#fff" fillOpacity="1">
              <g
                fill="#fff"
                fillOpacity="1"
                fillRule="nonzero"
                stroke="none"
                clipPath="url(#clipPath100)"
              >
                <path d="M3220.82 5101.4c-64.07-28.06-128.12-56.11-192.18-84.17-5.29-2.23-10.3 1.9-15.38 2.89-74.21 24.53-148.49 48.86-222.63 73.62-3.48 1.29-7 2.37-10.53 3.53v-137.01c58.48-48.54 138.42-72.79 220.35-72.79 83.21 0 161.5 23.26 220.37 73.17z"></path>
                <path d="M3298.71 5135.66l-37.78-16.9v-183.88c13.39 7.93 26.12 16.92 38.06 27z"></path>
                <path d="M2836.84 5100.9l135.39-44.68 52.5-17.31 320.62 140.45-.33-.1-158.39 52.25zm342.34 133.29l-146.59 48.39-188.96-159.71zm-526.52-72.3l140.04-46.19 233.13 169.09z"></path>
              </g>
            </g>
          </g>
        </g>
        <g fill="#fff" transform="matrix(.06006 0 0 -.06086 204.199 401.976)">
          <g
            fill="#fff"
            fillOpacity="1"
            clipPath="url(#clipPath120)"
            opacity="0.953"
          >
            <g fill="#fff" fillOpacity="1">
              <g fill="#fff" fillOpacity="1" clipPath="url(#clipPath124)">
                <path
                  fill="#fff"
                  fillOpacity="1"
                  fillRule="nonzero"
                  stroke="none"
                  d="M977.418 5259.93v-350.27h194.092v55.2h-127.94v299.81h-66.152zm1340.292-62.4c-29.05.55-58.76-11.13-77.17-34.09v29.65h-66.17v-283.74h66.17c.22 52.95-.44 106.2.33 159.11 1.24 18.86 5.21 41.09 22.95 51.46 17.48 11.08 38.98 9.46 58.77 9.47v68.28c-1.63 0-3.25-.14-4.88-.14zm-998.04-.11c-45.03-.8-88.33-26.98-110.19-66.31-20.5-36.24-23.56-80.48-14.5-120.58 10.67-47.6 47.74-89.77 95.81-101.45 38.47-9.62 81.69-2.07 112.69 23.32 3.9 2.97 7.5 6.3 10.92 9.8v-32.63h66.67v283.44h-66.67v-31.86c-23.2 23.07-55.59 36.69-88.41 36.3-2.1.13-4.19 0-6.32 0zm352.07-.13c-30.95-1.27-60.97-14.81-82.85-36.66v32.38h-66.18v-345.34h66.18c.14 35.28-.17 59.17.14 94.04 21.88-21.69 51.61-35.39 82.54-36.41 37.73-2.61 76.34 12.02 102.12 39.85 30.56 32 42.39 78.09 38.94 121.44-2.51 44.27-25.11 88.61-64 111.45-22.77 14.45-50.02 20.76-76.84 19.25zm295.92.13c-44.71-.8-87.76-26.62-109.75-65.51-20.89-36.38-24.06-81.01-14.94-121.38 10.67-47.62 47.77-89.77 95.83-101.45 38.48-9.62 81.66-2.04 112.7 23.32 3.89 2.97 7.46 6.33 10.89 9.83v-32.66h66.66v283.44h-66.66v-31.86c-23.21 23.07-55.59 36.69-88.39 36.3-2.12.13-4.22 0-6.34 0zm499.98 0c-44.29-.66-88.94-21.72-113.91-59.01-26.76-38.39-31.34-89-19.48-133.45 11.74-43.85 46.85-80.75 90.65-93.35 50.71-15.07 110.07-4.21 148.69 33.05 28.77 27.14 43.87 66.83 43.46 106.11.77 40.7-14.56 82.27-44.92 110.02-28.04 25.91-66.7 37.98-104.49 36.63zm-1126.55-58.81c27.54-1.28 52.75-19.3 64.13-44.22 11.8-24.91 12.05-54.87 2.46-80.55-9.6-25.39-32.75-45.54-59.95-49.14-28.58-4.72-59.06 8.59-74.53 33.18-16.78 24.8-18.82 57.41-11.04 85.71 8.79 30.23 37.34 53.42 68.86 55.02 3.37.18 6.71.18 10.07 0zm331.03 0c27.34-1.6 53.17-18.69 64.66-43.69 11.83-24.53 11.85-54.02 2.7-79.4-9.28-24.61-30.37-45.18-56.69-50.14-31.26-6.83-65.65 8.3-81.47 36.16-14.09 24.23-15.41 54.44-8.19 81.09 8.6 30.26 36.71 54.1 68.38 55.89 3.53.3 7.08.25 10.61.14zm316.98 0c27.2-1.3 52.26-18.86 63.69-43.41 12.19-24.87 12.46-54.88 3.17-80.7-9.28-24.78-31.16-44.9-57.6-49.36-28.97-5.79-60.6 7.05-76.7 31.99-17.2 24.89-19.38 57.88-11.52 86.46 8.87 30.57 37.97 53.91 69.92 55.04 3.01.19 6.01.14 9.04 0zm482.51.18c27.34.42 54.54-14.76 67-39.4 12.27-23.16 13.15-51.08 7.42-76.21-6.73-28.55-30.6-52.28-59.62-57.72-26.87-5.78-57.41 3.12-74.11 25.67-17.34 23.45-19.24 54.71-15.16 82.63 4.22 27.56 23.12 53.85 50.74 61.49 7.66 2.39 15.71 3.52 23.73 3.54z"
                ></path>
              </g>
            </g>
          </g>
        </g>
        <g fill="#fff" transform="matrix(.06006 0 0 -.06086 174.057 332.049)">
          <g
            fill="#fff"
            fillOpacity="1"
            clipPath="url(#clipPath140)"
            opacity="0.953"
          >
            <g fill="#fff" fillOpacity="1">
              <g fill="#fff" fillOpacity="1" clipPath="url(#clipPath144)">
                <path
                  fill="#fff"
                  fillOpacity="1"
                  fillRule="nonzero"
                  stroke="none"
                  d="M3693.785 3375.89l19.54-54.43 21 59.51zm25.08 20.48c-10.2-28.41-20.4-56.83-30.6-85.22h-.08c-4.79-13.94-9.62-27.89-14.44-41.81h68.8c15.21 42.33 30.42 84.69 45.61 127.03zm-123.69 254.11l101.55-282.88h80.87c33.85 94.31 67.72 188.6 101.56 282.88h-69.29c-10.19-28.41-20.39-56.83-30.61-85.22h-.06c-13.92-40.29-27.86-80.58-41.78-120.85-.45 1.21-.86 2.43-1.27 3.64-17.31 50-34.59 99.98-51.87 149.98l-18.76 52.45zM1465.87 3367.6h71.743c7.792 22.52 15.57 45 23.339 67.52h143.013c7.77-22.52 15.55-45 23.34-67.52h72.27c-42.14 117.38-84.31 234.74-126.45 352.09h-80.833c-42.144-117.35-84.285-234.71-126.422-352.09zm167.845 271.66c17.31-49.99 34.59-99.99 51.87-149.98h-106.246c17.695 51.21 35.406 102.41 53.106 153.63.44-1.22.86-2.43 1.27-3.65zm602.95 15.88c-20.97-.25-41.97-5.51-60.28-15.96-18.05-10.2-33.01-25.38-43.85-42.94-13.64-21.72-20.44-47.43-21.99-72.82-1.43-24.88 1.02-50.05 9.45-73.63 3.67-10.37 8.71-20.51 14.89-29.77 16.45-25.3 42.06-44.7 71.49-52.26 12.32-3.22 25.19-4.43 38.01-3.88 18.83.66 38 5.35 54.24 15.29 13.56 7.97 25.57 18.69 34.39 31.78 1.1 2.1 1.27 1.19 1.1-.72v-41.86h70.04v282.17h-70.04v-42.94c-5.94 8.27-12.9 15.9-20.92 22.24-7.79 6.2-16.47 11.46-25.35 15.6-15.85 7.27-33.81 9.98-51.18 9.7zm20.75-60.74c13.89.08 27.67-3.98 39.47-11.25 14.83-8.6 25.69-23.04 31.61-38.97 5.62-15.43 6.56-32.22 4.88-48.43-1.66-15.24-6.92-30.29-16.45-42.41-8.77-11.46-20.98-20.34-34.73-24.83-18.39-6.17-39.25-5.3-56.69 3.41-15.3 7.31-27.54 20.29-35.17 35.31-8.46 17.59-10.47 37.7-8.35 56.92 1.57 13.99 6.39 27.74 14.77 39.13 8.71 12.4 21.31 22.05 35.66 26.96 8 2.83 16.51 4.16 25 4.16zm419.12 119.77v-105.05c-.08-.23-.16-.23-.41.07-14.33 13.21-19.4 16.96-28.47 23.29-9.68 6.84-20.4 12.13-31.5 16.13-12.68 4.44-26.05 6.62-39.39 6.56-21.11.03-42.45-5.05-60.96-15.41-16.56-9.04-30.95-22.27-41.59-37.7-9.87-14.03-16.7-29.82-20.89-46.41-4.86-19.1-6.07-38.86-4.94-58.48 1.33-21.56 6.29-43.03 15.79-62.43 9.79-19.43 24.09-36.74 42.01-49.12 13.62-9.48 29.13-16.23 45.37-19.46 12.81-2.56 26.01-3 39.02-1.76 8.82.83 17.55 2.56 25.96 5.35 20.7 7 39.97 20.56 52.01 39.16.96 1.46 1.93 2.93 2.89 4.41v-44.95h70.53v345.8zm580.93-59.55c-14.55 0-29.38-3.34-42.69-9.29-14.89-6.59-28.12-16.95-37.89-29.98-1.22-2.1-1.3-1-1.16.82v34.37h-69.51v-282.17h69.51c.02 52.45-.03 104.9.05 157.37.25 15.08 3.03 30.76 11.66 43.44 8.52 12.51 22.41 20.89 37.2 23.64 11.77 2.24 24.06 2.19 35.75-.66 11.91-2.83 22.83-9.64 30.57-19.13 9.7-11.57 13.61-26.84 14.42-41.67.41-10.74.1-21.52.21-32.3v-130.69h69.51c.03 52.66-.05 105.36.06 158.04.24 15.18 3.22 30.92 12.15 43.48 8.65 12.19 22.3 20.35 36.9 23.05 12 2.23 24.56 1.98 36.39-1.13 11.9-3.15 22.65-10.28 30.21-19.98 9.31-11.89 12.86-27.18 13.5-41.98.27-13.45.05-26.93.16-40.37v-121.11h69.48c-.02 56.8.06 113.63-.02 170.47-.31 19.1-3.72 38.6-12.08 55.89-5.56 11.74-13.62 22.32-23.23 31.14-12.9 12.15-29.1 20.64-46.19 24.86-12.9 3.19-26.16 4.3-39.49 3.78-29.91-1.24-59.43-14.55-79.24-37.15-4.97-5.6-9.1-11.86-12.76-18.36-6.81 12.73-16.1 24.26-27.76 32.91-10.44 7.77-22.54 13.8-35.16 17.58-13.16 3.92-26.77 5.13-40.47 5.13zm-333.15-.06c-21.78-.24-43.74-4.41-63.56-13.83-11.33-5.35-21.83-12.24-31.17-20.7-7-6.34-13.34-13.64-18.64-21.36-12.45-17.94-20.2-38.91-23.45-60.39a196.415 196.415 0 01-.44-55.53c3.09-22.68 11.05-45.09 24.47-63.75 13.23-18.66 31.4-33.93 52.37-43.13 17.97-8.05 37.87-12.08 57.49-12.63 17.31-.49 34.73 1.24 51.35 6.2 14.11 4.2 27.48 10.86 39.19 19.65 17.8 13.51 32.41 31.37 41.26 51.93 1.96 4.46 3.69 9.12 5.13 13.73h-75.19c-6.01-12.22-15.74-22.85-28.25-28.5-12.87-5.87-27.54-6.95-41.42-5.08-14.25 2.02-27.76 8.77-37.85 19.05-10.55 10.53-16.64 24.81-18.87 39.41-.47 2.95-.78 5.9-1.02 8.85h208.33c2.01 12.93 2.29 26.18 1.45 39.25-1.28 18.71-5.81 37.35-14.18 54.15-5.82 11.63-13.12 22.93-22.27 32.42-14.03 14.77-32.03 25.52-51.08 32.16-17.22 5.95-35.47 8.38-53.65 8.1zm.55-56.64c14.96.08 30.17-3.85 42.52-12.56 9.15-6.37 17.09-14.83 21.47-25.22 3.56-8.1 4.93-16.98 5.05-25.77h-137.78c1.93 14.27 6.64 28.58 15.95 39.8 10.4 12.65 25.75 21.06 42.01 23.04 3.55.5 7.16.69 10.78.71zm-329.64-3.52c13.9.08 27.71-3.98 39.5-11.25 14.78-8.57 25.58-22.93 31.54-38.75 5.67-15.48 6.63-32.35 4.93-48.65-1.66-15.24-6.89-30.29-16.43-42.41-8.79-11.49-20.98-20.34-34.73-24.83-18.33-6.17-39.08-5.3-56.5 3.31-15.38 7.3-27.7 20.31-35.36 35.41-8.46 17.59-10.47 37.7-8.35 56.92 1.57 14.08 6.42 27.89 14.88 39.33 8.74 12.37 21.39 21.96 35.75 26.84 7.93 2.78 16.37 4.05 24.77 4.08zm-647.4 60.74c-21.77-.25-43.65-4.8-63.2-14.72-14.66-7.39-28-17.25-38.83-29.65-11.82-13.54-20.81-29.49-26.62-46.53-6.93-20.5-9.07-42.44-8.13-64.08 1.04-25.43 7.38-51.12 20.72-73.09 9.7-16.17 22.87-30.2 38.59-40.71 14.33-9.75 31.11-16.25 47.84-19.56 17.01-3.37 34.54-3.83 51.79-2.04 21.69 2.29 43.24 9.23 61.29 21.8 19.4 13.31 34.84 32.28 44.16 53.91 3.03 6.97 5.49 14.19 7.44 21.55h-75.16c-4.24-12.37-12.13-23.92-23.56-30.65-12.35-7.41-27.28-9.17-41.43-8.1-13.42 1.05-26.62 6.37-36.46 15.66-12.27 11.32-19.07 27.37-22.05 43.52-2.75 14.99-2.97 30.42-1.33 45.58 1.91 16.56 7.06 33.32 17.95 46.25 8.35 10.39 20.25 17.83 33.32 20.56 11.32 2.34 23.21 2.21 34.4-.74 9.76-2.55 18.52-8.11 25.66-15.11 6.17-6.15 10.69-13.87 13.5-22.11h75.19c-5.29 20.84-14.97 41.08-29.69 57.08-8.84 9.65-19.29 17.84-30.67 24.29-22.69 12.76-48.98 17.25-74.72 16.89zm380.75-4.6c-2.53-.85.78 2.53 0 .08zm71.25 0c-1.98-.52-1.27 2.31-.08.08zm-71.25-282.17c.86-2.57-2.5.77-.08 0zm71.25 0c-1.13-2.23-2.07.36-.08 0z"
                ></path>
              </g>
            </g>
          </g>
        </g>
        <text
          xmlSpace="preserve"
          x="404.824"
          y="137.812"
          fill="#fff"
          strokeWidth="0.187"
          fontFamily="Poppins"
          fontSize="17.977"
          fontStretch="normal"
          fontStyle="normal"
          fontVariant="normal"
          fontWeight="300"
        >
          <tspan
            x="404.824"
            y="137.812"
            fill="#fff"
            fillOpacity="1"
            strokeWidth="0.187"
            fontFamily="Poppins"
            fontSize="17.977"
            fontStretch="normal"
            fontStyle="normal"
            fontVariant="normal"
            fontWeight="300"
          >
            <tspan
              fill="#fff"
              fillOpacity="1"
              strokeWidth="0.187"
              baselineShift="super"
              fontFamily="Poppins"
              fontSize="11.685"
              fontStretch="normal"
              fontStyle="normal"
              fontVariant="normal"
              fontWeight="300"
            >
              ®
            </tspan>
          </tspan>
        </text>
      </g>
    </svg>
